<svg width="49" height="58" viewBox="0 0 49 58" fill="none" xmlns="http://www.w3.org/2000/svg">
<path fill-rule="evenodd" clip-rule="evenodd" d="M34.9634 17.3494C32.8062 19.1269 30.6515 20.4242 28.9581 21.3055C30.1957 22.0354 31.5586 22.1957 32.7259 21.9212C33.3411 21.7771 33.8976 21.5106 34.3432 21.1445C34.7547 20.8057 35.0677 20.3799 35.2337 19.8903C35.4681 19.1956 35.4183 18.3353 34.9634 17.3494ZM31.4933 31.6869L29.2517 30.3355C29.0348 30.25 28.8495 30.095 28.7222 29.8928C28.5949 29.6905 28.5322 29.4515 28.5431 29.2098C28.7485 24.6747 27.5753 22.6692 25.9928 21.4101C25.4251 20.959 24.8054 20.7325 24.1941 20.7325C23.5828 20.7325 22.9631 20.959 22.3956 21.4101C20.8131 22.6692 19.6399 24.6747 19.8453 29.2098C19.8561 29.4515 19.7934 29.6905 19.6662 29.8928C19.5389 30.095 19.3535 30.25 19.1367 30.3355L16.8951 31.6869C21.1817 34.1946 22.5451 38.7149 23.9149 43.2565C24.0077 43.5639 24.1004 43.8714 24.1941 44.1784C24.2879 43.8711 24.3808 43.5632 24.4736 43.2554C25.8435 38.7141 27.2069 34.1944 31.4933 31.6869ZM31.637 2.34259C29.3827 1.32125 26.7852 0.796241 24.1941 0.723633C21.6032 0.796241 19.0057 1.32125 16.7512 2.34259C15.1901 3.05076 13.7335 3.98619 12.4145 5.10478C11.8191 5.60977 11.3286 6.0978 10.7881 6.65922C9.33096 6.71179 7.20138 5.02216 6.21289 3.44115C7.91438 9.26329 15.6785 16.1387 21.0541 18.7696C21.0555 18.7691 21.0566 18.7682 21.0576 18.7674C21.0582 18.7669 21.0588 18.7665 21.0594 18.7661C22.0241 17.9973 23.1089 17.6129 24.1941 17.6129C25.2793 17.6129 26.3643 17.9973 27.329 18.7661C27.3294 18.7664 27.3298 18.7667 27.3302 18.7671C27.3314 18.768 27.3327 18.7689 27.3343 18.7696C32.7097 16.1387 40.474 9.26329 42.1755 3.44115C41.1868 5.02216 39.0572 6.71179 37.6001 6.65922C37.0598 6.09761 36.5693 5.60977 35.9737 5.10478C34.6547 3.98619 33.1981 3.05076 31.637 2.34259ZM13.425 17.3494C15.582 19.1269 17.7369 20.4242 19.4301 21.3055C18.1925 22.0354 16.8298 22.1957 15.6625 21.9212C15.0473 21.7771 14.4908 21.5106 14.045 21.1445C13.6337 20.8057 13.3207 20.3799 13.1545 19.8903C12.9203 19.1956 12.9701 18.3353 13.425 17.3494ZM40.9067 11.2119C40.0391 12.4297 38.96 13.7945 37.7354 15.0275L37.7355 15.0277L38.118 15.8203C38.8609 17.3599 39.1071 19.081 38.5281 20.718C38.1551 21.7724 37.4739 22.6766 36.5962 23.3669C35.7439 24.0372 34.7349 24.489 33.6786 24.7263C32.9906 24.8809 32.2896 24.9445 31.5932 24.9228C31.7557 25.8418 31.8266 26.795 31.8312 27.7663L38.0466 31.3478L33.2505 34.0301C32.8671 34.2445 32.5022 34.4901 32.1594 34.7646C28.9342 37.6535 26.7581 45.157 25.1788 50.6029C24.8218 51.834 24.4953 52.9599 24.194 53.9036C23.8929 52.9602 23.5665 51.8347 23.2096 50.6041C21.6303 45.1582 19.4541 37.6538 16.2288 34.7646C15.886 34.4902 15.5211 34.2445 15.1377 34.0301L10.3416 31.3478L16.5568 27.7663C16.5614 26.795 16.6323 25.8418 16.7948 24.9228C16.0984 24.9445 15.3974 24.8809 14.7094 24.7263C13.6532 24.489 12.6443 24.0372 11.7919 23.3669C10.9139 22.6766 10.2329 21.7724 9.85977 20.718C9.28094 19.081 9.52698 17.3597 10.27 15.8203L10.6525 15.0277C9.42765 13.7945 8.34877 12.4299 7.4811 11.2121L7.04061 12.0396C5.62151 14.8713 4.88456 17.6918 4.88456 20.8661L4.88761 25.903L4.86097 28.514C4.75803 34.9242 3.36786 41.4098 0.21875 47.345L6.80771 42.0442L11.4697 49.5921L16.3673 44.9921L24.1938 57.6636L32.0203 44.9919L36.9181 49.5919L41.5801 42.044L48.1689 47.3448C45.0198 41.4096 43.6296 34.924 43.5269 28.5139L43.5002 25.9028L43.5033 20.8659C43.5033 17.6918 42.7661 14.8713 41.3474 12.0394L40.9067 11.2119Z" fill="#FFFFFF"/>
</svg>
