<svg width="44" height="51" viewBox="0 0 44 51" fill="none" xmlns="http://www.w3.org/2000/svg">
<path fill-rule="evenodd" clip-rule="evenodd" d="M16.6145 47.4735C13.6318 45.9144 11.1915 44.5951 11.1921 44.5414C11.1934 44.4029 18.3506 40.7657 18.6046 40.7745C18.7202 40.7784 19.5585 41.1656 20.4674 41.6349L22.1202 42.488L23.9254 41.5569L25.7304 40.6257L28.6865 41.9585C33.1407 43.967 33.6033 44.1871 33.5308 44.261C33.4345 44.3591 31.8369 45.2204 27.5024 47.5102C25.4076 48.617 23.3744 49.7021 22.9841 49.9216C22.5938 50.1412 22.2213 50.3178 22.1562 50.3144C22.0911 50.311 19.5972 49.0326 16.6145 47.4735ZM3.53243 40.6757L0.427477 39.0664V32.0032C0.427477 28.1184 0.468248 24.9401 0.518259 24.9401C0.568096 24.9401 2.09574 25.6046 3.91294 26.4167L7.21695 27.8934V35.3384L8.8315 34.4558C10.0757 33.7762 11.3206 33.098 12.5662 32.4212L14.6863 31.2694L15.6297 31.6974C16.2213 31.9663 16.8118 32.2378 17.4011 32.512C17.8564 32.7248 18.9742 33.23 19.885 33.6349C20.7958 34.0399 21.6388 34.4472 21.7584 34.5401C21.9172 34.6634 19.9808 35.7372 14.596 38.5119C10.5371 40.6035 7.08597 42.3081 6.92681 42.2999C6.76766 42.2918 5.24019 41.561 3.53243 40.6757ZM34.0903 40.2238C31.9757 39.2658 30.244 38.4438 30.2421 38.3969C30.2402 38.3501 31.3928 37.6624 32.8035 36.8689C34.214 36.0753 35.3682 35.3836 35.3682 35.3315C35.3682 35.2795 34.12 34.6726 32.5945 33.9825C31.0688 33.2927 27.2126 31.5451 24.0249 30.0991L13.344 25.2545C10.6572 24.0357 8.23535 22.9372 7.96214 22.813C2.47423 20.3201 0.965816 19.6283 0.758669 19.5096C0.550367 19.39 0.503186 18.6955 0.466111 15.2097L0.421875 11.0522L3.19846 9.63256L5.97499 8.21298L9.82508 9.95655C11.9427 10.9154 13.6752 11.7503 13.6752 11.8117C13.6752 11.8731 13.2839 12.1289 12.8058 12.3805C12.3275 12.6321 11.3402 13.1891 10.6116 13.6185C9.88306 14.048 9.15657 14.442 8.99707 14.4943C8.83762 14.5464 8.70948 14.6375 8.71207 14.697C8.71473 14.7563 10.4101 15.5644 12.4794 16.4929C16.4986 18.2961 19.5744 19.6859 26.1777 22.6824C29.1304 24.022 32.0835 25.3608 35.037 26.6988C37.6327 27.8745 40.6507 29.2476 41.7437 29.7501L43.7308 30.6638L43.775 34.8686L43.8194 39.0733L41.0033 40.5238C39.4543 41.3215 38.1304 41.9722 38.061 41.9698C37.9916 41.9676 36.2048 41.182 34.0903 40.2238ZM42.9763 25.0543C42.5614 24.8509 41.7417 24.4701 41.1548 24.2081C40.568 23.9461 39.4543 23.4419 38.6801 23.0874L37.2726 22.4432L37.2405 18.7517C37.2227 16.7215 37.1482 15.0693 37.0749 15.0801C36.9083 15.1049 34.2702 16.4626 31.6183 17.8885C29.7043 18.9175 29.5841 18.9584 29.1344 18.7349C28.8744 18.6056 27.3203 17.9062 25.6809 17.1804C24.0415 16.4547 22.6467 15.8135 22.5811 15.7555C22.5157 15.6975 25.8152 13.903 29.9135 11.7675L37.3648 7.8847L40.5479 9.53701C42.2984 10.4456 43.787 11.2745 43.8555 11.3787C44.0098 11.6131 43.9966 25.4563 43.8421 25.4376C43.781 25.4302 43.3913 25.2577 42.9763 25.0543ZM25.3497 8.80592C24.7976 8.56773 24.2456 8.32919 23.6937 8.0903C22.0273 7.36687 22.3539 7.34288 20.3714 8.33323C19.0509 8.99281 18.4818 9.19632 18.2347 9.09752C18.0494 9.02346 16.4545 8.30344 14.6903 7.49754C12.9262 6.69165 11.4216 6.0323 11.3467 6.0323C10.6065 6.0323 11.8371 5.29455 16.5854 2.89105L22.154 0.0725822L24.497 1.2333C25.7857 1.87173 28.3849 3.15014 30.2732 4.0742C32.1613 4.99849 33.6828 5.77866 33.6543 5.80809C33.6256 5.83742 32.0435 6.65265 30.1384 7.6197L26.6745 9.37776L25.3497 8.80592Z" fill="#FFFFFF"/>
</svg>
