<?xml version="1.0" encoding="UTF-8"?>
<svg id="Layer_2" data-name="Layer 2" xmlns="http://www.w3.org/2000/svg" viewBox="0 0 1440 83">
  <defs>
    <style>
      .cls-1 {
        fill: #fff;
      }

      .cls-2 {
        fill: #2d357f;
      }
    </style>
  </defs>
  <g id="Layer_1-2" data-name="Layer 1">
    <g>
      <polygon class="cls-2" points="1411.5 14 1380.5 9.5 1359.5 9.5 1302.5 14 1252 9.5 1199.5 14 1147.5 7.5 1079 9.5 1011 1.5 969.5 13.5 942 9.5 906.5 13.5 858 7.5 792 13.5 708.5 4.5 634 13.5 615.5 4.5 569.5 7.5 531 4.5 504 13.5 481 7.5 455 7.5 422.5 7.5 400 0 340 13.5 277.5 7.5 251.5 7.5 243 0 218 7.5 177 7.5 144.5 4 87.5 12.5 65 7.5 0 12 0 28.5 0 83 1440 83 1440 73.5 1440 6 1411.5 14"/>
      <g>
        <polygon class="cls-1" points="27.36 13.32 49.86 17.32 110.36 13.32 154.36 13.32 197.86 17.32 245.36 13.32 296.86 17.32 302.86 20.32 319.86 17.32 365.86 13.32 393.36 17.32 430.86 13.32 467.36 18.82 496.36 11.82 498.38 12.03 481 7.5 455 7.5 422.5 7.5 400 0 340 13.5 277.5 7.5 251.5 7.5 243 0 218 7.5 177 7.5 144.5 4 87.5 12.5 65 7.5 0 12 0 16.41 27.36 13.32"/>
        <polygon class="cls-1" points="983.2 9.54 1046.86 19.82 1105.86 12.82 1164.36 19.82 1185.86 19.82 1213.36 16.82 1248.86 22.32 1291.36 16.82 1328.36 16.82 1365.86 18.32 1374.36 20.82 1407.36 13.82 1407.42 13.41 1380.5 9.5 1359.5 9.5 1302.5 14 1252 9.5 1199.5 14 1147.5 7.5 1079 9.5 1011 1.5 983.2 9.54"/>
        <polygon class="cls-1" points="858 7.5 792 13.5 708.5 4.5 634 13.5 615.5 4.5 569.5 7.5 531 4.5 506.02 12.83 549.36 17.32 579.86 10.32 599.36 19.82 669.36 11.82 726.86 18.32 764.36 18.32 804.36 18.32 815.36 15.82 838.36 19.82 903.36 19.82 929.86 19.82 944.36 19.82 967.82 13.26 942 9.5 906.5 13.5 858 7.5"/>
      </g>
    </g>
  </g>
</svg>