<svg width="354" height="352" viewBox="0 0 354 352" fill="none" xmlns="http://www.w3.org/2000/svg">
<path d="M353.5 176.061C353.5 272.574 274.483 350.822 177 350.822C79.5171 350.822 0.5 272.574 0.5 176.061C0.5 79.5483 79.5171 1.30078 177 1.30078C274.483 1.30078 353.5 79.5483 353.5 176.061Z" stroke="white" stroke-opacity="0.2"/>
<path d="M319.211 176.061C319.211 253.824 255.545 316.871 176.999 316.871C98.4529 316.871 34.7871 253.824 34.7871 176.061C34.7871 98.2991 98.4529 35.252 176.999 35.252C255.545 35.252 319.211 98.2991 319.211 176.061Z" stroke="white" stroke-opacity="0.5"/>
<g clip-path="url(#clip0_176_1187)">
<path d="M284.497 69H69.502V283.995H284.497V69Z" fill="#AB9FF2"/>
<path fill-rule="evenodd" clip-rule="evenodd" d="M162.96 206.979C154.953 219.248 141.536 234.775 123.682 234.775C115.242 234.775 107.127 231.301 107.127 216.208C107.127 177.771 159.606 118.27 208.298 118.27C235.998 118.27 247.036 137.488 247.036 159.312C247.036 187.326 228.857 219.357 210.787 219.357C205.052 219.357 202.239 216.208 202.239 211.213C202.239 209.91 202.455 208.499 202.888 206.979C196.72 217.511 184.818 227.283 173.673 227.283C165.557 227.283 161.446 222.18 161.446 215.014C161.446 212.408 161.987 209.693 162.96 206.979ZM204.904 158.555C204.904 164.915 201.152 168.095 196.955 168.095C192.694 168.095 189.006 164.915 189.006 158.555C189.006 152.196 192.694 149.016 196.955 149.016C201.152 149.016 204.904 152.196 204.904 158.555ZM228.75 158.556C228.75 164.915 224.998 168.095 220.801 168.095C216.54 168.095 212.851 164.915 212.851 158.556C212.851 152.196 216.54 149.017 220.801 149.017C224.998 149.017 228.75 152.196 228.75 158.556Z" fill="#FFFDF8"/>
</g>
<rect x="70.002" y="69.5" width="213.995" height="213.995" rx="106.997" stroke="white"/>
<defs>
<clipPath id="clip0_176_1187">
<rect x="69.502" y="69" width="214.995" height="214.995" rx="107.497" fill="white"/>
</clipPath>
</defs>
</svg>
