<svg width="354" height="351" viewBox="0 0 354 351" fill="none" xmlns="http://www.w3.org/2000/svg">
<path d="M353.5 175.26C353.5 271.773 274.483 350.021 177 350.021C79.5171 350.021 0.5 271.773 0.5 175.26C0.5 78.7476 79.5171 0.5 177 0.5C274.483 0.5 353.5 78.7476 353.5 175.26Z" stroke="white" stroke-opacity="0.2"/>
<path d="M318.924 175.69C318.924 253.453 255.258 316.5 176.712 316.5C98.1658 316.5 34.5 253.453 34.5 175.69C34.5 97.9281 98.1658 34.8809 176.712 34.8809C255.258 34.8809 318.924 97.9281 318.924 175.69Z" stroke="white" stroke-opacity="0.5"/>
<path d="M177.497 281.876C118.404 281.876 70.5 233.971 70.5 174.878C70.5 115.785 118.404 67.8809 177.497 67.8809C236.59 67.8809 284.495 115.785 284.495 174.878C284.495 233.971 236.59 281.876 177.497 281.876Z" stroke="white"/>
<path d="M238.617 156.935V211.788L176.999 247.007L115.347 211.788V141.316L176.999 106.063L224.355 133.149L231.503 129.066L176.999 97.8965L108.199 137.233V215.871L176.999 255.207L245.799 215.871V152.852L238.617 156.935Z" fill="url(#paint0_linear_108_1060)"/>
<path d="M159.749 211.821H149.439V177.589H183.805C187.056 177.554 190.163 176.252 192.452 173.966C194.742 171.68 196.03 168.593 196.039 165.373C196.058 163.781 195.747 162.202 195.127 160.733C194.506 159.265 193.589 157.937 192.431 156.832C191.31 155.692 189.969 154.788 188.486 154.174C187.004 153.56 185.412 153.249 183.805 153.259H149.439V142.847H183.839C189.862 142.882 195.628 145.267 199.886 149.484C204.145 153.701 206.553 159.41 206.589 165.373C206.626 169.938 205.22 174.4 202.569 178.134C200.128 181.706 196.689 184.497 192.672 186.164C188.694 187.413 184.542 188.034 180.368 188.002H159.749V211.821Z" fill="url(#paint1_linear_108_1060)"/>
<path d="M206.348 210.97H194.32L185.041 194.943C188.712 194.721 192.333 193.988 195.797 192.766L206.348 210.97Z" fill="url(#paint2_linear_108_1060)"/>
<path d="M231.436 145.536L238.549 149.449L245.663 145.536V137.267L238.549 133.184L231.436 137.267V145.536Z" fill="url(#paint3_linear_108_1060)"/>
<defs>
<linearGradient id="paint0_linear_108_1060" x1="245.678" y1="137.276" x2="100.184" y2="196.036" gradientUnits="userSpaceOnUse">
<stop stop-color="#C200FB"/>
<stop offset="0.489658" stop-color="#3772FF"/>
<stop offset="1" stop-color="#5AC4BE"/>
</linearGradient>
<linearGradient id="paint1_linear_108_1060" x1="245.679" y1="137.275" x2="100.185" y2="196.036" gradientUnits="userSpaceOnUse">
<stop stop-color="#C200FB"/>
<stop offset="0.489658" stop-color="#3772FF"/>
<stop offset="1" stop-color="#5AC4BE"/>
</linearGradient>
<linearGradient id="paint2_linear_108_1060" x1="245.678" y1="137.275" x2="100.184" y2="196.036" gradientUnits="userSpaceOnUse">
<stop stop-color="#C200FB"/>
<stop offset="0.489658" stop-color="#3772FF"/>
<stop offset="1" stop-color="#5AC4BE"/>
</linearGradient>
<linearGradient id="paint3_linear_108_1060" x1="245.679" y1="137.276" x2="100.185" y2="196.036" gradientUnits="userSpaceOnUse">
<stop stop-color="#C200FB"/>
<stop offset="0.489658" stop-color="#3772FF"/>
<stop offset="1" stop-color="#5AC4BE"/>
</linearGradient>
</defs>
</svg>
