<svg width="44" height="38" viewBox="0 0 44 38" fill="none" xmlns="http://www.w3.org/2000/svg">
<path fill-rule="evenodd" clip-rule="evenodd" d="M26.4856 6.33648C22.5762 7.96254 14.7629 11.3281 3.04564 16.4331C1.14295 17.1897 0.146232 17.9299 0.0554966 18.6537C-0.0978486 19.8769 1.43394 20.3585 3.51984 21.0144C3.80358 21.1037 4.09757 21.1961 4.39897 21.2941C6.45118 21.9612 9.21177 22.7416 10.6469 22.7726C11.9487 22.8007 13.4016 22.2641 15.0057 21.1626C25.9535 13.7725 31.6048 10.0372 31.9596 9.95671C32.2099 9.89989 32.5567 9.82846 32.7918 10.0374C33.0268 10.2462 33.0037 10.6418 32.9788 10.748C32.827 11.3949 26.8142 16.985 23.7025 19.8778C22.7325 20.7797 22.0444 21.4194 21.9037 21.5655C21.5886 21.8928 21.2675 22.2023 20.9588 22.4999C19.0523 24.3378 17.6225 25.7161 21.038 27.9668C22.6793 29.0484 23.9927 29.9428 25.303 30.8351C26.734 31.8096 28.1612 32.7816 30.0078 33.9921C30.4783 34.3005 30.9277 34.6208 31.3653 34.9328C33.0306 36.12 34.5267 37.1866 36.3751 37.0165C37.4491 36.9177 38.5585 35.9078 39.1219 32.8958C40.4535 25.7774 43.0708 10.3542 43.6757 3.99871C43.7287 3.44188 43.662 2.72925 43.6084 2.41643C43.5549 2.1036 43.443 1.65789 43.0364 1.32794C42.5548 0.93718 41.8114 0.854779 41.4789 0.860635C39.9672 0.887266 37.6478 1.69376 26.4856 6.33648Z" fill="#FF00BF"/>
</svg>
